<svg version="1.1" id="Layer_1" xmlns="http://www.w3.org/2000/svg" xmlns:xlink="http://www.w3.org/1999/xlink" x="0px" y="0px"
	 width="100%" viewBox="0 0 656 656" enable-background="new 0 0 656 656" xml:space="preserve">
<path fill="#FFFFFF" opacity="1.000000" stroke="none" 
	d="
M611.000000,657.000000 
	C407.333344,657.000000 204.166672,657.000000 1.000000,657.000000 
	C1.000000,438.333344 1.000000,219.666672 1.000000,1.000000 
	C219.666672,1.000000 438.333344,1.000000 657.000000,1.000000 
	C657.000000,219.666672 657.000000,438.333344 657.000000,657.000000 
	C641.833313,657.000000 626.666687,657.000000 611.000000,657.000000 
M107.972618,298.206512 
	C107.144829,299.616608 105.611221,301.019623 105.596939,302.437927 
	C105.429138,319.101776 105.489197,335.767975 105.489174,352.433533 
	C105.489174,354.213165 105.489174,355.992798 105.489174,357.030670 
	C117.917633,357.030670 129.742233,357.538116 141.499344,356.865845 
	C150.475586,356.352539 155.199707,350.567688 155.302002,342.200348 
	C155.407501,333.570068 151.542236,329.491638 141.385635,327.516541 
	C150.708908,323.545166 153.089340,320.580597 152.694061,313.433014 
	C152.242294,305.263489 147.545151,299.868164 138.836685,299.156677 
	C128.895630,298.344482 118.877060,298.480804 107.972618,298.206512 
M311.042450,356.297821 
	C311.044067,350.965576 310.909241,345.628510 311.095917,340.302765 
	C311.217773,336.826843 311.474243,333.288086 312.276306,329.921906 
	C313.133545,326.324158 315.883453,324.253052 319.644836,324.407532 
	C323.265472,324.556213 325.416595,326.831848 325.949310,330.378967 
	C326.367767,333.165161 326.664673,335.992310 326.714325,338.806580 
	C326.825592,345.111542 326.749176,351.419769 326.749176,357.718872 
	C330.581024,357.718872 334.003632,357.718872 337.822723,357.718872 
	C337.822723,351.469910 337.674286,345.498840 337.879578,339.539948 
	C337.998749,336.081726 338.314484,332.541473 339.221313,329.223877 
	C340.149841,325.826813 343.217499,323.633911 346.471527,324.602448 
	C348.852631,325.311188 351.473846,327.854492 352.382874,330.201721 
	C353.528473,333.159698 353.170319,336.748322 353.227448,340.068909 
	C353.329315,345.991577 353.256104,351.917267 353.256104,357.865356 
	C357.269257,357.865356 360.581848,357.865356 364.693024,357.865356 
	C364.174072,347.416168 364.392517,337.037964 362.945923,326.897278 
	C361.535980,317.013794 354.550934,312.367554 345.959259,314.854462 
	C341.985962,316.004517 338.603149,319.194672 334.926575,321.476013 
	C333.165863,316.880005 329.155640,313.538757 323.717560,314.440247 
	C319.247070,315.181305 315.113068,317.952148 311.065948,319.720215 
	C311.006500,318.601562 310.901855,316.632324 310.786041,314.453430 
	C307.186432,314.453430 303.791901,314.453430 300.414490,314.453430 
	C300.414490,329.116699 300.414490,343.494446 300.414490,358.361755 
	C304.219055,357.965118 307.603394,357.612244 311.042450,356.297821 
M266.961243,351.708557 
	C268.385406,348.130920 269.809570,344.553314 271.233765,340.975708 
	C271.826385,341.057648 272.419006,341.139587 273.011658,341.221527 
	C276.532562,346.010925 279.993195,350.846741 283.620880,355.553864 
	C284.429352,356.602875 285.776459,357.797241 286.959320,357.893311 
	C290.670624,358.194733 294.421875,358.004211 299.074585,358.004211 
	C292.666351,349.006378 286.840942,340.826965 279.497894,330.516571 
	C285.547119,325.168518 291.669403,319.755859 298.188568,313.992340 
	C295.403229,313.992340 293.224823,314.235565 291.121216,313.942383 
	C286.563782,313.307220 283.380615,314.884033 280.510590,318.550446 
	C276.576965,323.575592 272.016174,328.109772 266.857239,333.812714 
	C266.857239,321.244568 266.857239,309.907990 266.857239,298.468903 
	C262.889709,298.468903 259.487579,298.468903 256.019287,298.468903 
	C256.019287,318.419983 256.019287,338.113708 256.019287,357.753448 
	C259.765594,357.753448 263.197357,357.753448 266.961273,357.753448 
	C266.961273,355.874847 266.961273,354.246216 266.961243,351.708557 
M503.631653,347.461426 
	C503.768524,342.639496 503.598206,337.783844 504.122223,333.004364 
	C504.739502,327.374084 508.689606,324.153015 513.864746,324.343719 
	C518.864258,324.527954 521.764160,327.171722 522.031372,333.092010 
	C522.402649,341.316467 522.124756,349.570221 522.124756,357.635376 
	C526.690002,357.635376 530.081421,357.635376 532.966187,357.635376 
	C532.966187,347.623566 533.321228,337.978088 532.838135,328.374756 
	C532.529602,322.241150 529.540833,317.012787 523.169373,315.141388 
	C516.769226,313.261658 510.620636,313.813385 505.726318,319.174835 
	C505.290802,319.651917 504.624786,319.918610 503.439514,320.691406 
	C503.439514,312.827576 503.439514,305.719513 503.439514,298.462006 
	C499.476990,298.462006 495.910065,298.462006 492.273010,298.462006 
	C492.273010,318.428619 492.273010,338.133179 492.273010,357.685303 
	C496.148438,357.685303 499.714813,357.685303 503.631592,357.685303 
	C503.631592,354.389648 503.631592,351.414917 503.631653,347.461426 
M373.220520,318.702240 
	C366.194061,328.610168 366.712708,339.309601 370.358673,350.097443 
	C372.160126,355.427582 376.548767,358.093506 382.115356,358.832458 
	C388.753723,359.713715 394.430511,357.946838 398.839478,352.035950 
	C399.686310,354.586121 400.241852,356.259125 400.764496,357.833130 
	C404.052399,357.833130 407.012970,357.833130 410.015442,357.833130 
	C410.015442,343.238373 410.015442,328.822815 410.015442,314.354309 
	C406.264404,314.354309 402.804657,314.354309 399.094208,314.354309 
	C398.940094,316.369446 398.798370,318.222656 398.636017,320.345886 
	C389.067352,312.646576 381.664459,312.087708 373.220520,318.702240 
M250.076874,332.292908 
	C249.088333,325.082855 245.853729,319.311493 239.031891,316.217102 
	C223.153198,309.014465 207.685028,318.258392 206.458588,335.566254 
	C205.597794,347.713959 212.356033,356.743744 223.683990,358.581329 
	C236.991150,360.739990 246.870529,355.142700 249.562119,343.524414 
	C250.334351,340.191040 249.965759,336.593323 250.076874,332.292908 
M169.460602,316.818695 
	C157.031967,322.726746 156.977310,341.486633 162.191605,349.743134 
	C167.698700,358.463257 180.674347,361.635590 191.659225,356.898712 
	C200.705475,352.997833 205.105255,341.024567 201.950394,328.893036 
	C199.434616,319.219116 190.498337,313.232269 179.814865,314.350891 
	C176.554901,314.692200 173.370102,315.751251 169.460602,316.818695 
M456.662140,344.647766 
	C455.935425,342.639221 454.966339,340.681702 454.530334,338.611908 
	C453.488129,333.664490 454.734070,329.259644 458.877960,326.192474 
	C462.659271,323.393555 467.106049,323.032898 471.095886,325.377777 
	C473.474976,326.775940 475.101440,329.454651 477.006836,331.494141 
	C479.970642,331.494141 483.049683,331.494141 486.129150,331.494141 
	C485.462128,320.921204 476.439148,313.665680 464.908417,314.119354 
	C451.769409,314.636292 442.684479,324.386536 443.030548,337.599457 
	C443.373901,350.709290 452.246460,359.154541 465.499329,358.986176 
	C477.442261,358.834442 485.857727,351.592468 486.013733,341.142792 
	C482.750763,341.142792 479.488495,341.142792 476.288635,341.142792 
	C471.946808,350.178680 464.093048,351.837708 456.662140,344.647766 
M433.330444,314.156830 
	C430.839417,314.460388 429.162659,314.033356 429.504669,310.842621 
	C429.765015,308.413879 429.556335,305.934875 429.556335,303.374451 
	C426.234375,303.374451 423.476807,303.374451 420.770538,303.374451 
	C418.994110,312.717926 418.994110,312.717926 412.652405,314.980133 
	C412.652405,317.255951 412.652405,319.541443 412.652405,322.049927 
	C414.769958,322.242523 416.711273,322.419067 418.968170,322.624329 
	C418.968170,324.397369 418.966034,326.040955 418.968567,327.684540 
	C418.978851,334.342712 418.879425,341.003601 419.040039,347.658173 
	C419.151123,352.260529 420.460175,356.558441 425.750488,357.371124 
	C430.223846,358.058350 434.825592,357.909882 439.482086,358.136719 
	C439.482086,354.670074 439.482086,352.067505 439.482086,348.887390 
	C436.081482,348.887390 432.872131,348.887390 429.970886,348.887390 
	C429.970886,339.733093 429.970886,331.164124 429.970886,322.517670 
	C433.305939,322.371796 436.230438,322.243896 439.038330,322.121063 
	C439.038330,319.236328 439.038330,316.794006 439.038330,314.156921 
	C437.243958,314.156921 435.752075,314.156921 433.330444,314.156830 
M539.253235,351.428558 
	C539.658386,355.298340 541.192566,358.554596 545.617920,357.839417 
	C547.947571,357.462982 550.920410,355.829407 551.969482,353.883118 
	C553.999329,350.117493 552.007690,345.981445 548.638306,344.941803 
	C543.854919,343.465851 540.743347,345.366150 539.253235,351.428558 
z"/>
<path fill="#070707" opacity="1.000000" stroke="none" 
	d="
M108.432396,298.205719 
	C118.877060,298.480804 128.895630,298.344482 138.836685,299.156677 
	C147.545151,299.868164 152.242294,305.263489 152.694061,313.433014 
	C153.089340,320.580597 150.708908,323.545166 141.385635,327.516541 
	C151.542236,329.491638 155.407501,333.570068 155.302002,342.200348 
	C155.199707,350.567688 150.475586,356.352539 141.499344,356.865845 
	C129.742233,357.538116 117.917633,357.030670 105.489174,357.030670 
	C105.489174,355.992798 105.489174,354.213165 105.489174,352.433533 
	C105.489197,335.767975 105.429138,319.101776 105.596939,302.437927 
	C105.611221,301.019623 107.144829,299.616608 108.432396,298.205719 
M119.511520,331.692719 
	C118.589859,332.295715 116.896843,332.865021 116.868813,333.507050 
	C116.648430,338.554657 116.746536,343.616150 116.746536,348.316528 
	C123.467918,348.316528 129.440887,348.629150 135.365341,348.227051 
	C141.083832,347.838928 143.797867,344.912689 143.783173,340.315826 
	C143.768280,335.656586 140.595779,332.524811 134.950912,332.109039 
	C130.154175,331.755737 125.327065,331.814819 119.511520,331.692719 
M126.342163,322.919281 
	C129.322098,322.665436 132.315506,322.515686 135.278595,322.131775 
	C139.100113,321.636749 141.245117,319.434631 141.325821,315.482574 
	C141.410797,311.320343 139.207672,308.555328 135.254730,308.276978 
	C129.190918,307.849945 123.074860,308.164734 116.580482,308.164734 
	C116.580482,311.658356 116.561600,315.120361 116.590225,318.581970 
	C116.600937,319.878510 116.722229,321.174072 116.817688,322.919678 
	C119.793564,322.919678 122.591629,322.919678 126.342163,322.919281 
z"/>
<path fill="#050505" opacity="1.000000" stroke="none" 
	d="
M311.015076,356.778625 
	C307.603394,357.612244 304.219055,357.965118 300.414490,358.361755 
	C300.414490,343.494446 300.414490,329.116699 300.414490,314.453430 
	C303.791901,314.453430 307.186432,314.453430 310.786041,314.453430 
	C310.901855,316.632324 311.006500,318.601562 311.065948,319.720215 
	C315.113068,317.952148 319.247070,315.181305 323.717560,314.440247 
	C329.155640,313.538757 333.165863,316.880005 334.926575,321.476013 
	C338.603149,319.194672 341.985962,316.004517 345.959259,314.854462 
	C354.550934,312.367554 361.535980,317.013794 362.945923,326.897278 
	C364.392517,337.037964 364.174072,347.416168 364.693024,357.865356 
	C360.581848,357.865356 357.269257,357.865356 353.256104,357.865356 
	C353.256104,351.917267 353.329315,345.991577 353.227448,340.068909 
	C353.170319,336.748322 353.528473,333.159698 352.382874,330.201721 
	C351.473846,327.854492 348.852631,325.311188 346.471527,324.602448 
	C343.217499,323.633911 340.149841,325.826813 339.221313,329.223877 
	C338.314484,332.541473 337.998749,336.081726 337.879578,339.539948 
	C337.674286,345.498840 337.822723,351.469910 337.822723,357.718872 
	C334.003632,357.718872 330.581024,357.718872 326.749176,357.718872 
	C326.749176,351.419769 326.825592,345.111542 326.714325,338.806580 
	C326.664673,335.992310 326.367767,333.165161 325.949310,330.378967 
	C325.416595,326.831848 323.265472,324.556213 319.644836,324.407532 
	C315.883453,324.253052 313.133545,326.324158 312.276306,329.921906 
	C311.474243,333.288086 311.217773,336.826843 311.095917,340.302765 
	C310.909241,345.628510 311.044067,350.965576 311.015076,356.778625 
z"/>
<path fill="#040404" opacity="1.000000" stroke="none" 
	d="
M266.961243,352.163086 
	C266.961273,354.246216 266.961273,355.874847 266.961273,357.753448 
	C263.197357,357.753448 259.765594,357.753448 256.019287,357.753448 
	C256.019287,338.113708 256.019287,318.419983 256.019287,298.468903 
	C259.487579,298.468903 262.889709,298.468903 266.857239,298.468903 
	C266.857239,309.907990 266.857239,321.244568 266.857239,333.812714 
	C272.016174,328.109772 276.576965,323.575592 280.510590,318.550446 
	C283.380615,314.884033 286.563782,313.307220 291.121216,313.942383 
	C293.224823,314.235565 295.403229,313.992340 298.188568,313.992340 
	C291.669403,319.755859 285.547119,325.168518 279.497894,330.516571 
	C286.840942,340.826965 292.666351,349.006378 299.074585,358.004211 
	C294.421875,358.004211 290.670624,358.194733 286.959320,357.893311 
	C285.776459,357.797241 284.429352,356.602875 283.620880,355.553864 
	C279.993195,350.846741 276.532562,346.010925 273.011658,341.221527 
	C272.419006,341.139587 271.826385,341.057648 271.233765,340.975708 
	C269.809570,344.553314 268.385406,348.130920 266.961243,352.163086 
z"/>
<path fill="#080808" opacity="1.000000" stroke="none" 
	d="
M503.631622,347.950806 
	C503.631592,351.414917 503.631592,354.389648 503.631592,357.685303 
	C499.714813,357.685303 496.148438,357.685303 492.273010,357.685303 
	C492.273010,338.133179 492.273010,318.428619 492.273010,298.462006 
	C495.910065,298.462006 499.476990,298.462006 503.439514,298.462006 
	C503.439514,305.719513 503.439514,312.827576 503.439514,320.691406 
	C504.624786,319.918610 505.290802,319.651917 505.726318,319.174835 
	C510.620636,313.813385 516.769226,313.261658 523.169373,315.141388 
	C529.540833,317.012787 532.529602,322.241150 532.838135,328.374756 
	C533.321228,337.978088 532.966187,347.623566 532.966187,357.635376 
	C530.081421,357.635376 526.690002,357.635376 522.124756,357.635376 
	C522.124756,349.570221 522.402649,341.316467 522.031372,333.092010 
	C521.764160,327.171722 518.864258,324.527954 513.864746,324.343719 
	C508.689606,324.153015 504.739502,327.374084 504.122223,333.004364 
	C503.598206,337.783844 503.768524,342.639496 503.631622,347.950806 
z"/>
<path fill="#050505" opacity="1.000000" stroke="none" 
	d="
M373.473145,318.439484 
	C381.664459,312.087708 389.067352,312.646576 398.636017,320.345886 
	C398.798370,318.222656 398.940094,316.369446 399.094208,314.354309 
	C402.804657,314.354309 406.264404,314.354309 410.015442,314.354309 
	C410.015442,328.822815 410.015442,343.238373 410.015442,357.833130 
	C407.012970,357.833130 404.052399,357.833130 400.764496,357.833130 
	C400.241852,356.259125 399.686310,354.586121 398.839478,352.035950 
	C394.430511,357.946838 388.753723,359.713715 382.115356,358.832458 
	C376.548767,358.093506 372.160126,355.427582 370.358673,350.097443 
	C366.712708,339.309601 366.194061,328.610168 373.473145,318.439484 
M395.451233,347.109985 
	C399.377411,342.436340 399.403198,337.067535 398.071655,331.544159 
	C396.466400,324.885529 389.348175,322.060028 383.636047,325.712067 
	C378.995758,328.678864 377.433197,338.316833 380.591888,344.488251 
	C383.104034,349.396454 388.429932,350.586975 395.451233,347.109985 
z"/>
<path fill="#060606" opacity="1.000000" stroke="none" 
	d="
M250.098557,332.704865 
	C249.965759,336.593323 250.334351,340.191040 249.562119,343.524414 
	C246.870529,355.142700 236.991150,360.739990 223.683990,358.581329 
	C212.356033,356.743744 205.597794,347.713959 206.458588,335.566254 
	C207.685028,318.258392 223.153198,309.014465 239.031891,316.217102 
	C245.853729,319.311493 249.088333,325.082855 250.098557,332.704865 
M223.138062,324.337799 
	C216.909088,328.944000 215.329208,339.585083 219.980637,345.604095 
	C223.398514,350.026886 231.995026,350.572540 236.021454,346.622223 
	C239.584137,343.126892 240.510666,333.414398 237.768600,328.307495 
	C235.339767,323.783966 230.647614,322.340057 223.138062,324.337799 
z"/>
<path fill="#050505" opacity="1.000000" stroke="none" 
	d="
M169.805740,316.650146 
	C173.370102,315.751251 176.554901,314.692200 179.814865,314.350891 
	C190.498337,313.232269 199.434616,319.219116 201.950394,328.893036 
	C205.105255,341.024567 200.705475,352.997833 191.659225,356.898712 
	C180.674347,361.635590 167.698700,358.463257 162.191605,349.743134 
	C156.977310,341.486633 157.031967,322.726746 169.805740,316.650146 
M173.993820,325.378601 
	C169.084427,330.401703 169.064453,336.431366 170.973328,342.521149 
	C173.103836,349.318024 182.783905,351.676270 188.171097,346.983002 
	C192.422913,343.278931 193.287735,332.784424 189.778336,327.479645 
	C186.818893,323.006226 181.010315,322.039368 173.993820,325.378601 
z"/>
<path fill="#050505" opacity="1.000000" stroke="none" 
	d="
M456.854858,344.987030 
	C464.093048,351.837708 471.946808,350.178680 476.288635,341.142792 
	C479.488495,341.142792 482.750763,341.142792 486.013733,341.142792 
	C485.857727,351.592468 477.442261,358.834442 465.499329,358.986176 
	C452.246460,359.154541 443.373901,350.709290 443.030548,337.599457 
	C442.684479,324.386536 451.769409,314.636292 464.908417,314.119354 
	C476.439148,313.665680 485.462128,320.921204 486.129150,331.494141 
	C483.049683,331.494141 479.970642,331.494141 477.006836,331.494141 
	C475.101440,329.454651 473.474976,326.775940 471.095886,325.377777 
	C467.106049,323.032898 462.659271,323.393555 458.877960,326.192474 
	C454.734070,329.259644 453.488129,333.664490 454.530334,338.611908 
	C454.966339,340.681702 455.935425,342.639221 456.854858,344.987030 
z"/>
<path fill="#0B0B0B" opacity="1.000000" stroke="none" 
	d="
M433.795319,314.156860 
	C435.752075,314.156921 437.243958,314.156921 439.038330,314.156921 
	C439.038330,316.794006 439.038330,319.236328 439.038330,322.121063 
	C436.230438,322.243896 433.305939,322.371796 429.970886,322.517670 
	C429.970886,331.164124 429.970886,339.733093 429.970886,348.887390 
	C432.872131,348.887390 436.081482,348.887390 439.482086,348.887390 
	C439.482086,352.067505 439.482086,354.670074 439.482086,358.136719 
	C434.825592,357.909882 430.223846,358.058350 425.750488,357.371124 
	C420.460175,356.558441 419.151123,352.260529 419.040039,347.658173 
	C418.879425,341.003601 418.978851,334.342712 418.968567,327.684540 
	C418.966034,326.040955 418.968170,324.397369 418.968170,322.624329 
	C416.711273,322.419067 414.769958,322.242523 412.652405,322.049927 
	C412.652405,319.541443 412.652405,317.255951 412.652405,314.980133 
	C418.994110,312.717926 418.994110,312.717926 420.770538,303.374451 
	C423.476807,303.374451 426.234375,303.374451 429.556335,303.374451 
	C429.556335,305.934875 429.765015,308.413879 429.504669,310.842621 
	C429.162659,314.033356 430.839417,314.460388 433.795319,314.156860 
z"/>
<path fill="#FF473C" opacity="1.000000" stroke="none" 
	d="
M539.265198,351.043671 
	C540.743347,345.366150 543.854919,343.465851 548.638306,344.941803 
	C552.007690,345.981445 553.999329,350.117493 551.969482,353.883118 
	C550.920410,355.829407 547.947571,357.462982 545.617920,357.839417 
	C541.192566,358.554596 539.658386,355.298340 539.265198,351.043671 
z"/>
<path fill="#FBFBFB" opacity="1.000000" stroke="none" 
	d="
M120.012459,331.692078 
	C125.327065,331.814819 130.154175,331.755737 134.950912,332.109039 
	C140.595779,332.524811 143.768280,335.656586 143.783173,340.315826 
	C143.797867,344.912689 141.083832,347.838928 135.365341,348.227051 
	C129.440887,348.629150 123.467918,348.316528 116.746536,348.316528 
	C116.746536,343.616150 116.648430,338.554657 116.868813,333.507050 
	C116.896843,332.865021 118.589859,332.295715 120.012459,331.692078 
z"/>
<path fill="#FBFBFB" opacity="1.000000" stroke="none" 
	d="
M125.865929,322.919495 
	C122.591629,322.919678 119.793564,322.919678 116.817688,322.919678 
	C116.722229,321.174072 116.600937,319.878510 116.590225,318.581970 
	C116.561600,315.120361 116.580482,311.658356 116.580482,308.164734 
	C123.074860,308.164734 129.190918,307.849945 135.254730,308.276978 
	C139.207672,308.555328 141.410797,311.320343 141.325821,315.482574 
	C141.245117,319.434631 139.100113,321.636749 135.278595,322.131775 
	C132.315506,322.515686 129.322098,322.665436 125.865929,322.919495 
z"/>
<path fill="#F9F9F9" opacity="1.000000" stroke="none" 
	d="
M395.166840,347.396362 
	C388.429932,350.586975 383.104034,349.396454 380.591888,344.488251 
	C377.433197,338.316833 378.995758,328.678864 383.636047,325.712067 
	C389.348175,322.060028 396.466400,324.885529 398.071655,331.544159 
	C399.403198,337.067535 399.377411,342.436340 395.166840,347.396362 
z"/>
<path fill="#FBFBFB" opacity="1.000000" stroke="none" 
	d="
M223.499161,324.182648 
	C230.647614,322.340057 235.339767,323.783966 237.768600,328.307495 
	C240.510666,333.414398 239.584137,343.126892 236.021454,346.622223 
	C231.995026,350.572540 223.398514,350.026886 219.980637,345.604095 
	C215.329208,339.585083 216.909088,328.944000 223.499161,324.182648 
z"/>
<path fill="#F9F9F9" opacity="1.000000" stroke="none" 
	d="
M174.316986,325.169250 
	C181.010315,322.039368 186.818893,323.006226 189.778336,327.479645 
	C193.287735,332.784424 192.422913,343.278931 188.171097,346.983002 
	C182.783905,351.676270 173.103836,349.318024 170.973328,342.521149 
	C169.064453,336.431366 169.084427,330.401703 174.316986,325.169250 
z"/>
</svg>