<?xml version="1.0" standalone="no"?>
<!DOCTYPE svg PUBLIC "-//W3C//DTD SVG 20010904//EN"
 "http://www.w3.org/TR/2001/REC-SVG-20010904/DTD/svg10.dtd">
<svg version="1.0" xmlns="http://www.w3.org/2000/svg"
 width="512.000000pt" height="512.000000pt" viewBox="0 0 512.000000 512.000000"
 preserveAspectRatio="xMidYMid meet">

<g transform="translate(0.000000,512.000000) scale(0.100000,-0.100000)"
fill="#000000" stroke="none">
<path d="M2440 4747 c-216 -83 -328 -224 -370 -470 -32 -187 -90 -290 -192
-341 -114 -57 -241 -16 -320 102 -15 23 -16 22 -47 -51 -40 -98 -60 -182 -67
-292 -8 -109 5 -198 47 -331 56 -175 41 -333 -41 -448 -53 -73 -140 -106 -222
-84 l-26 8 -7 -87 c-24 -287 35 -483 192 -640 88 -89 266 -171 489 -228 34 -8
66 -15 70 -15 5 0 -12 21 -37 48 -165 171 -241 436 -195 676 21 107 79 137
148 77 66 -57 90 -62 153 -31 62 30 79 68 70 149 -25 216 -21 310 19 436 47
149 167 324 291 426 71 58 111 64 152 23 23 -23 25 -31 20 -77 -6 -64 8 -203
27 -258 38 -109 105 -155 215 -147 36 3 76 11 88 19 32 20 47 62 39 114 -3 25
-9 65 -12 90 -6 39 -3 49 16 70 36 39 73 33 165 -26 118 -76 271 -234 319
-329 85 -172 83 -310 -7 -480 -155 -292 -168 -331 -168 -480 -1 -69 5 -113 20
-160 33 -102 27 -99 123 -67 298 101 460 249 519 474 39 146 28 414 -27 655
l-16 68 -45 0 c-28 0 -58 8 -77 19 -77 48 -96 136 -96 451 0 266 -8 313 -66
418 -20 34 -62 91 -94 126 -60 63 -180 155 -180 137 0 -25 -106 -123 -165
-152 -59 -29 -70 -31 -148 -28 -74 4 -93 9 -161 43 -105 53 -203 146 -243 228
-53 108 -64 202 -39 331 13 66 12 67 -8 67 -12 -1 -59 -15 -106 -33z"/>
<path d="M2357 3378 c-54 -76 -89 -150 -113 -240 -16 -62 -15 -169 2 -365 8
-83 -14 -148 -71 -211 -71 -79 -191 -116 -287 -89 l-28 7 0 -54 c0 -81 17
-151 59 -241 64 -136 166 -240 326 -332 70 -40 70 -40 205 -46 162 -8 388 6
548 33 167 29 154 19 127 98 -35 101 -48 214 -35 316 18 148 57 250 161 421
63 104 85 186 70 266 -14 84 -65 172 -144 254 -68 70 -69 70 -79 45 -6 -14
-17 -41 -25 -62 -20 -48 -66 -92 -128 -120 -42 -19 -67 -23 -155 -23 -94 0
-111 3 -161 28 -63 31 -127 93 -159 158 -12 23 -32 83 -44 133 l-22 90 -47
-66z"/>
<path d="M978 2653 l-38 -16 0 -959 c0 -910 1 -960 18 -953 75 29 249 82 357
110 419 108 804 96 1080 -34 l85 -40 -2 442 -3 442 -116 6 c-331 18 -653 95
-889 211 -92 45 -117 64 -201 148 -86 85 -102 107 -147 200 -62 126 -80 199
-89 348 -3 61 -9 112 -12 111 -3 -1 -23 -8 -43 -16z"/>
<path d="M4096 2632 c-3 -20 -6 -61 -6 -90 0 -232 -144 -482 -353 -616 -217
-139 -631 -254 -979 -273 l-118 -6 0 -444 0 -443 58 29 c78 39 190 76 298 97
120 24 416 25 563 1 170 -28 450 -103 604 -162 16 -7 17 43 17 954 0 529 -2
961 -4 961 -2 0 -19 7 -39 15 l-35 14 -6 -37z"/>
<path d="M715 2241 l-50 -18 -3 -938 -2 -937 22 5 c13 2 79 21 147 41 472 137
936 176 1289 107 109 -21 128 -35 141 -106 7 -36 18 -57 40 -77 l31 -28 226 0
226 0 34 34 c22 22 34 44 34 60 0 40 25 82 57 94 48 19 187 41 330 52 168 14
401 0 618 -36 145 -25 444 -96 534 -128 24 -9 50 -16 57 -16 12 0 14 146 12
936 l-3 937 -35 12 c-19 7 -45 15 -57 19 l-23 7 0 -846 0 -846 -26 -25 c-32
-33 -54 -30 -194 24 -535 207 -1019 234 -1345 77 -49 -24 -112 -62 -139 -84
-28 -24 -59 -41 -73 -41 -15 0 -51 20 -87 47 -316 239 -857 239 -1485 -3 -64
-24 -126 -44 -139 -44 -13 0 -34 11 -47 25 l-25 24 0 846 c0 465 -3 845 -7
844 -5 0 -30 -8 -58 -18z"/>
</g>
</svg>
